<?xml version="1.0" encoding="utf-8"?>
<!-- Generator: Adobe Illustrator 16.0.0, SVG Export Plug-In . SVG Version: 6.00 Build 0)  -->
<!DOCTYPE svg PUBLIC "-//W3C//DTD SVG 1.1//EN" "http://www.w3.org/Graphics/SVG/1.1/DTD/svg11.dtd">
<svg version="1.1" id="Layer_1" xmlns="http://www.w3.org/2000/svg" xmlns:xlink="http://www.w3.org/1999/xlink" x="0px" y="0px"
	 width="698.965px" height="577.471px" viewBox="0 0 698.965 577.471" enable-background="new 0 0 698.965 577.471"
	 xml:space="preserve">
<path fill="#1A3D2E" stroke="#FFFFFF" stroke-width="42.5197" d="M349.562,26.895l-233,79c0,0-32,388,232,443c0,0,242-4,234-442
	L349.562,26.895z"/>
<path fill="#1A3D2E" d="M349.562,26.895l-233,79c0,0-32,388,232,443c0,0,242-4,234-442L349.562,26.895z"/>
<path fill="#2F8F44" d="M349.261,50.895l-211.574,71.736c0,0-9.926,137.461,39.521,253.197
	c29.929,70.054,80.78,132.759,171.171,151.59c0,0,110.928-3.455,172.233-151.22c24.286-58.534,42.285-139.81,40.224-252.659
	L349.261,50.895z"/>
<g>
	<defs>
		<path id="SVGID_1_" d="M349.261,50.895l-211.574,71.736c0,0-9.926,137.461,39.521,253.197
			c29.929,70.054,80.78,132.759,171.171,151.59c0,0,110.928-3.455,172.233-151.22c24.286-58.534,42.285-139.81,40.224-252.659
			L349.261,50.895z"/>
	</defs>
	<clipPath id="SVGID_2_">
		<use xlink:href="#SVGID_1_"  overflow="visible"/>
	</clipPath>
	<rect x="174.347" y="7.895" clip-path="url(#SVGID_2_)" fill="#76B776" width="31" height="551"/>
	<rect x="253.347" y="7.895" clip-path="url(#SVGID_2_)" fill="#76B776" width="31" height="551"/>
	<rect x="332.347" y="7.895" clip-path="url(#SVGID_2_)" fill="#76B776" width="31" height="551"/>
	<rect x="411.347" y="7.895" clip-path="url(#SVGID_2_)" fill="#76B776" width="31" height="551"/>
	<rect x="490.347" y="7.895" clip-path="url(#SVGID_2_)" fill="#76B776" width="31" height="551"/>
</g>
<path fill="#FFFFFF" d="M197.808,376.895v40c0,0-49.02,5.745-78.52,13.245l17.52-27.245l-21.5-19.86
	C115.308,383.035,161.808,379.895,197.808,376.895z"/>
<path fill="#1A3D2E" d="M126.808,386.895l66-3.5v29c0,0-40.5,5-63,10l14.5-20L126.808,386.895z"/>
<path fill="#FFFFFF" d="M502.32,376.895v40c0,0,49.02,5.745,78.52,13.245l-17.52-27.245l21.5-19.86
	C584.82,383.035,538.32,379.895,502.32,376.895z"/>
<path fill="#1A3D2E" d="M573.32,386.895l-66-3.5v29c0,0,40.5,5,63,10l-14.5-20L573.32,386.895z"/>
<g>
	<g>
		<path fill="#FFFFFF" d="M382.999,488.645c0,0,40.366-9.396,69.616-52.896l0.75,1c0,0-28.866,45.146-69.366,54.396L382.999,488.645
			z"/>
		<path fill="#FFFFFF" d="M453.365,436.749c0,0,1.134,0.646,2.134,0.396s2-0.5,2-0.5l0.25-1l0.25-2c1.75-1,3,0.25,3-0.75
			s-0.5-2.75-0.5-2.75l-1.5-0.75l-2,0.5c0,0-0.5,0.25-0.5,1s-1,1.75-1,1.75l-1.5,0.25l-2,1.75l0.616,1.104L453.365,436.749z"/>
		<path fill="#FFFFFF" d="M393.249,486.895c-0.129-0.357-1.312-5.75-1.188-9.438s0-2.125,0-2.125l0.562-0.688l0.375-0.188
			l0.125,0.25c0,0,0,0.562,0.25,0.25s0.188-1.188,0.312-1s-0.125,0.875,0.25,0.812s0.688-1.125,0.688-1.125l0.312,1.125l0.625-1.25
			l0.375,0.75l0.562-0.75l0.375,0.438l0.375-0.5l0.25,0.5c0,0-0.938,7.812-0.125,10.625c0,0,3.957,5.635,7.77,7.01l0.625,0.5
			c0,0-1-0.062-0.875,0.25s0.188,0.688,0.188,0.688h-1.312l0.188,1l-0.812,0.375v0.625l-1.188,0.125l0.125,0.75l-1.375-0.062
			C400.706,495.842,393.812,488.458,393.249,486.895z"/>
		<path fill="#FFFFFF" d="M401.662,482.984c-0.12-0.332-1.217-5.331-1.102-8.75c0.116-3.418,0-1.97,0-1.97l0.521-0.638l0.348-0.174
			l0.116,0.232c0,0,0,0.521,0.231,0.231c0.232-0.29,0.174-1.101,0.29-0.927s-0.116,0.811,0.231,0.753s0.638-1.043,0.638-1.043
			l0.29,1.043l0.579-1.159l0.348,0.695l0.521-0.695l0.348,0.406l0.348-0.464l0.231,0.464c0,0-0.869,7.242-0.115,9.85
			c0,0,3.668,5.225,7.203,6.499l0.579,0.464c0,0-0.927-0.059-0.812,0.231c0.116,0.29,0.174,0.638,0.174,0.638h-1.217l0.174,0.927
			l-0.753,0.348v0.579l-1.101,0.116l0.115,0.695l-1.274-0.058C408.575,491.279,402.184,484.432,401.662,482.984z"/>
		<path fill="#FFFFFF" d="M409.948,478.323c-0.111-0.307-1.376-4.912-1.271-8.062c0.107-3.148-0.255-1.814-0.255-1.814l0.48-0.588
			l0.32-0.16l0.107,0.215c0,0,0,0.48,0.213,0.213c0.215-0.268,0.16-1.014,0.268-0.854s-0.107,0.746,0.213,0.693
			s0.588-0.961,0.588-0.961l0.268,0.961l0.533-1.068l0.32,0.641l0.48-0.641l0.32,0.375l0.32-0.428l0.213,0.428
			c0,0-0.291,6.672,0.404,9.074c0,0,3.379,4.814,6.637,5.988l0.533,0.428c0,0-0.854-0.055-0.748,0.213
			c0.107,0.268,0.16,0.588,0.16,0.588h-1.121l0.16,0.854l-0.693,0.32v0.533l-1.014,0.107l0.105,0.641l-1.174-0.053
			C416.317,485.965,410.429,479.657,409.948,478.323z"/>
		<path fill="#FFFFFF" d="M417.367,473.84c-0.129-0.266-2.035-4.054-2.239-6.896c-0.203-2.839-0.173-1.63-0.173-1.63l0.376-0.575
			l0.272-0.173l0.118,0.183c0,0,0.045,0.432,0.21,0.171c0.169-0.261,0.048-0.927,0.16-0.793c0.113,0.134-0.025,0.681,0.258,0.604
			c0.282-0.077,0.438-0.92,0.438-0.92l0.33,0.838l0.378-1.011l0.351,0.546l0.371-0.621l0.322,0.307l0.248-0.415l0.231,0.364
			c0,0,0.475,5.818,1.327,7.912c0,0,3.494,4.007,6.535,4.752l0.521,0.334c0,0-0.772,0.032-0.653,0.262
			c0.122,0.23,0.199,0.514,0.199,0.514l-1.007,0.106l0.226,0.752l-0.594,0.354l0.051,0.479l-0.901,0.192l0.156,0.565l-1.061,0.065
			C423.817,480.106,417.926,474.994,417.367,473.84z"/>
		<path fill="#FFFFFF" d="M423.894,468.401c-0.135-0.239-2.11-3.642-2.458-6.263c-0.345-2.619-0.25-1.501-0.25-1.501l0.316-0.554
			l0.242-0.176l0.12,0.163c0,0,0.065,0.396,0.204,0.146c0.143-0.25-0.008-0.86,0.105-0.743c0.111,0.118,0.013,0.633,0.271,0.546
			c0.259-0.088,0.354-0.877,0.354-0.877l0.353,0.757l0.295-0.957l0.354,0.487l0.311-0.597l0.315,0.266l0.206-0.397l0.235,0.324
			c0,0,0.762,5.364,1.668,7.257c0,0,3.46,3.518,6.318,4.038l0.501,0.281c0,0-0.714,0.072-0.591,0.279
			c0.126,0.206,0.213,0.464,0.213,0.464l-0.927,0.154l0.251,0.685l-0.531,0.361l0.074,0.44l-0.824,0.228l0.175,0.516l-0.979,0.119
			C430.216,473.847,424.475,469.439,423.894,468.401z"/>
		<path fill="#FFFFFF" d="M430.124,464.206c-0.141-0.206-2.176-3.146-2.681-5.495c-0.502-2.349-0.335-1.342-0.335-1.342l0.247-0.524
			l0.206-0.177l0.121,0.139c0,0,0.088,0.354,0.195,0.117c0.111-0.237-0.069-0.779,0.041-0.681s0.058,0.571,0.285,0.475
			c0.229-0.099,0.258-0.82,0.258-0.82l0.374,0.66l0.197-0.889l0.355,0.417l0.238-0.563l0.306,0.218l0.158-0.375l0.236,0.276
			c0,0,1.078,4.806,2.036,6.454c0,0,3.389,2.937,6.016,3.201l0.476,0.219c0,0-0.643,0.117-0.516,0.296
			c0.129,0.178,0.227,0.405,0.227,0.405l-0.829,0.206l0.277,0.602l-0.456,0.366l0.101,0.394l-0.731,0.266l0.196,0.455l-0.878,0.179
			C436.245,468.683,430.725,465.104,430.124,464.206z"/>
		<path fill="#FFFFFF" d="M435.191,459.578c-0.157-0.194-2.434-2.952-3.136-5.249c-0.698-2.298-0.447-1.309-0.447-1.309l0.202-0.544
			l0.19-0.193l0.133,0.128c0,0,0.117,0.346,0.204,0.101c0.091-0.246-0.135-0.771-0.017-0.682s0.105,0.564,0.324,0.448
			c0.22-0.117,0.188-0.839,0.188-0.839l0.429,0.626l0.121-0.902l0.39,0.386l0.189-0.582l0.323,0.191l0.126-0.387l0.259,0.255
			c0,0,1.48,4.697,2.574,6.259c0,0,3.625,2.64,6.266,2.682l0.492,0.178c0,0-0.631,0.171-0.489,0.338
			c0.144,0.167,0.261,0.385,0.261,0.385l-0.81,0.275l0.327,0.576l-0.423,0.403l0.134,0.384l-0.707,0.326l0.234,0.438l-0.859,0.252
			C441.67,463.521,435.866,460.421,435.191,459.578z"/>
		<path fill="#FFFFFF" d="M439.941,454.203c-0.157-0.194-2.434-2.952-3.136-5.249c-0.698-2.298-0.447-1.309-0.447-1.309l0.202-0.544
			l0.19-0.193l0.133,0.128c0,0,0.117,0.346,0.204,0.101c0.091-0.246-0.135-0.771-0.017-0.682s0.105,0.564,0.324,0.448
			c0.22-0.117,0.188-0.839,0.188-0.839l0.429,0.626l0.121-0.902l0.39,0.386l0.189-0.582l0.323,0.191l0.126-0.387l0.259,0.255
			c0,0,1.48,4.697,2.574,6.259c0,0,3.625,2.64,6.266,2.682l0.492,0.178c0,0-0.631,0.171-0.489,0.338
			c0.144,0.167,0.261,0.385,0.261,0.385l-0.81,0.275l0.327,0.576l-0.423,0.403l0.134,0.384l-0.707,0.326l0.234,0.438l-0.859,0.252
			C446.42,458.146,440.616,455.046,439.941,454.203z"/>
		<path fill="#FFFFFF" d="M444.316,448.953c-0.157-0.194-2.434-2.952-3.136-5.249c-0.698-2.298-0.447-1.309-0.447-1.309l0.202-0.544
			l0.19-0.193l0.133,0.128c0,0,0.117,0.346,0.204,0.101c0.091-0.246-0.135-0.771-0.017-0.682s0.105,0.564,0.324,0.448
			c0.22-0.117,0.188-0.839,0.188-0.839l0.429,0.626l0.121-0.902l0.39,0.386l0.189-0.582l0.323,0.191l0.126-0.387l0.259,0.255
			c0,0,1.48,4.697,2.574,6.259c0,0,3.625,2.64,6.266,2.682l0.492,0.178c0,0-0.631,0.171-0.489,0.338
			c0.144,0.167,0.261,0.385,0.261,0.385l-0.81,0.275l0.327,0.576l-0.423,0.403l0.134,0.384l-0.707,0.326l0.234,0.438l-0.859,0.252
			C450.795,452.896,444.991,449.796,444.316,448.953z"/>
		<path fill="#FFFFFF" d="M449.191,442.578c-0.157-0.194-2.434-2.952-3.136-5.249c-0.698-2.298-0.447-1.309-0.447-1.309l0.202-0.544
			l0.19-0.193l0.133,0.128c0,0,0.117,0.346,0.204,0.101c0.091-0.246-0.135-0.771-0.017-0.682s0.105,0.564,0.324,0.448
			c0.22-0.117,0.188-0.839,0.188-0.839l0.429,0.626l0.121-0.902l0.39,0.386l0.189-0.582l0.323,0.191l0.126-0.387l0.259,0.255
			c0,0,1.48,4.697,2.574,6.259c0,0,3.625,2.64,6.266,2.682l0.492,0.178c0,0-0.631,0.171-0.489,0.338
			c0.144,0.167,0.261,0.385,0.261,0.385l-0.81,0.275l0.327,0.576l-0.423,0.403l0.134,0.384l-0.707,0.326l0.234,0.438l-0.859,0.252
			C455.67,446.521,449.866,443.421,449.191,442.578z"/>
	</g>
	<g>
		<path fill="#FFFFFF" d="M316.499,488.645c0,0-40.366-9.396-69.616-52.896l-0.75,1c0,0,28.866,45.146,69.366,54.396
			L316.499,488.645z"/>
		<path fill="#FFFFFF" d="M246.133,436.749c0,0-1.134,0.646-2.134,0.396s-2-0.5-2-0.5l-0.25-1l-0.25-2c-1.75-1-3,0.25-3-0.75
			s0.5-2.75,0.5-2.75l1.5-0.75l2,0.5c0,0,0.5,0.25,0.5,1s1,1.75,1,1.75l1.5,0.25l2,1.75l-0.616,1.104L246.133,436.749z"/>
		<path fill="#FFFFFF" d="M306.249,486.895c0.129-0.357,1.312-5.75,1.188-9.438s0-2.125,0-2.125l-0.562-0.688l-0.375-0.188
			l-0.125,0.25c0,0,0,0.562-0.25,0.25s-0.188-1.188-0.312-1s0.125,0.875-0.25,0.812s-0.688-1.125-0.688-1.125l-0.312,1.125
			l-0.625-1.25l-0.375,0.75l-0.562-0.75l-0.375,0.438l-0.375-0.5l-0.25,0.5c0,0,0.938,7.812,0.125,10.625c0,0-3.957,5.635-7.77,7.01
			l-0.625,0.5c0,0,1-0.062,0.875,0.25s-0.188,0.688-0.188,0.688h1.312l-0.188,1l0.812,0.375v0.625l1.188,0.125l-0.125,0.75
			l1.375-0.062C298.792,495.842,305.687,488.458,306.249,486.895z"/>
		<path fill="#FFFFFF" d="M297.836,482.984c0.12-0.332,1.217-5.331,1.102-8.75c-0.116-3.418,0-1.97,0-1.97l-0.521-0.638
			l-0.348-0.174l-0.116,0.232c0,0,0,0.521-0.231,0.231c-0.232-0.29-0.174-1.101-0.29-0.927s0.116,0.811-0.231,0.753
			s-0.638-1.043-0.638-1.043l-0.29,1.043l-0.579-1.159l-0.348,0.695l-0.521-0.695l-0.348,0.406l-0.348-0.464l-0.231,0.464
			c0,0,0.869,7.242,0.115,9.85c0,0-3.668,5.225-7.203,6.499l-0.579,0.464c0,0,0.927-0.059,0.812,0.231
			c-0.116,0.29-0.174,0.638-0.174,0.638h1.217l-0.174,0.927l0.753,0.348v0.579l1.101,0.116l-0.115,0.695l1.274-0.058
			C290.923,491.279,297.314,484.432,297.836,482.984z"/>
		<path fill="#FFFFFF" d="M289.55,478.323c0.111-0.307,1.376-4.912,1.271-8.062c-0.107-3.148,0.255-1.814,0.255-1.814l-0.48-0.588
			l-0.32-0.16l-0.107,0.215c0,0,0,0.48-0.213,0.213c-0.215-0.268-0.16-1.014-0.268-0.854s0.107,0.746-0.213,0.693
			s-0.588-0.961-0.588-0.961l-0.268,0.961l-0.533-1.068l-0.32,0.641l-0.48-0.641l-0.32,0.375l-0.32-0.428l-0.213,0.428
			c0,0,0.291,6.672-0.404,9.074c0,0-3.379,4.814-6.637,5.988l-0.533,0.428c0,0,0.854-0.055,0.748,0.213
			c-0.107,0.268-0.16,0.588-0.16,0.588h1.121l-0.16,0.854l0.693,0.32v0.533l1.014,0.107l-0.105,0.641l1.174-0.053
			C283.181,485.965,289.069,479.657,289.55,478.323z"/>
		<path fill="#FFFFFF" d="M282.131,473.84c0.129-0.266,2.035-4.054,2.239-6.896c0.203-2.839,0.173-1.63,0.173-1.63l-0.376-0.575
			l-0.272-0.173l-0.118,0.183c0,0-0.045,0.432-0.21,0.171c-0.169-0.261-0.048-0.927-0.16-0.793
			c-0.113,0.134,0.025,0.681-0.258,0.604c-0.282-0.077-0.438-0.92-0.438-0.92l-0.33,0.838l-0.378-1.011l-0.351,0.546l-0.371-0.621
			l-0.322,0.307l-0.248-0.415l-0.231,0.364c0,0-0.475,5.818-1.327,7.912c0,0-3.494,4.007-6.535,4.752l-0.521,0.334
			c0,0,0.772,0.032,0.653,0.262c-0.122,0.23-0.199,0.514-0.199,0.514l1.007,0.106l-0.226,0.752l0.594,0.354l-0.051,0.479
			l0.901,0.192l-0.156,0.565l1.061,0.065C275.681,480.106,281.572,474.994,282.131,473.84z"/>
		<path fill="#FFFFFF" d="M275.604,468.401c0.135-0.239,2.11-3.642,2.458-6.263c0.345-2.619,0.25-1.501,0.25-1.501l-0.316-0.554
			l-0.242-0.176l-0.12,0.163c0,0-0.065,0.396-0.204,0.146c-0.143-0.25,0.008-0.86-0.105-0.743c-0.111,0.118-0.013,0.633-0.271,0.546
			c-0.259-0.088-0.354-0.877-0.354-0.877l-0.353,0.757l-0.295-0.957l-0.354,0.487l-0.311-0.597l-0.315,0.266l-0.206-0.397
			l-0.235,0.324c0,0-0.762,5.364-1.668,7.257c0,0-3.46,3.518-6.318,4.038l-0.501,0.281c0,0,0.714,0.072,0.591,0.279
			c-0.126,0.206-0.213,0.464-0.213,0.464l0.927,0.154l-0.251,0.685l0.531,0.361l-0.074,0.44l0.824,0.228l-0.175,0.516l0.979,0.119
			C269.282,473.847,275.023,469.439,275.604,468.401z"/>
		<path fill="#FFFFFF" d="M269.374,464.206c0.141-0.206,2.176-3.146,2.681-5.495c0.502-2.349,0.335-1.342,0.335-1.342l-0.247-0.524
			l-0.206-0.177l-0.121,0.139c0,0-0.088,0.354-0.195,0.117c-0.111-0.237,0.069-0.779-0.041-0.681s-0.058,0.571-0.285,0.475
			c-0.229-0.099-0.258-0.82-0.258-0.82l-0.374,0.66l-0.197-0.889l-0.355,0.417l-0.238-0.563l-0.306,0.218l-0.158-0.375l-0.236,0.276
			c0,0-1.078,4.806-2.036,6.454c0,0-3.389,2.937-6.016,3.201l-0.476,0.219c0,0,0.643,0.117,0.516,0.296
			c-0.129,0.178-0.227,0.405-0.227,0.405l0.829,0.206l-0.277,0.602l0.456,0.366l-0.101,0.394l0.731,0.266l-0.196,0.455l0.878,0.179
			C263.253,468.683,268.773,465.104,269.374,464.206z"/>
		<path fill="#FFFFFF" d="M264.307,459.578c0.157-0.194,2.434-2.952,3.136-5.249c0.698-2.298,0.447-1.309,0.447-1.309l-0.202-0.544
			l-0.19-0.193l-0.133,0.128c0,0-0.117,0.346-0.204,0.101c-0.091-0.246,0.135-0.771,0.017-0.682s-0.105,0.564-0.324,0.448
			c-0.22-0.117-0.188-0.839-0.188-0.839l-0.429,0.626l-0.121-0.902l-0.39,0.386l-0.189-0.582l-0.323,0.191l-0.126-0.387
			l-0.259,0.255c0,0-1.48,4.697-2.574,6.259c0,0-3.625,2.64-6.266,2.682l-0.492,0.178c0,0,0.631,0.171,0.489,0.338
			c-0.144,0.167-0.261,0.385-0.261,0.385l0.81,0.275l-0.327,0.576l0.423,0.403l-0.134,0.384l0.707,0.326l-0.234,0.438l0.859,0.252
			C257.828,463.521,263.632,460.421,264.307,459.578z"/>
		<path fill="#FFFFFF" d="M259.557,454.203c0.157-0.194,2.434-2.952,3.136-5.249c0.698-2.298,0.447-1.309,0.447-1.309l-0.202-0.544
			l-0.19-0.193l-0.133,0.128c0,0-0.117,0.346-0.204,0.101c-0.091-0.246,0.135-0.771,0.017-0.682s-0.105,0.564-0.324,0.448
			c-0.22-0.117-0.188-0.839-0.188-0.839l-0.429,0.626l-0.121-0.902l-0.39,0.386l-0.189-0.582l-0.323,0.191l-0.126-0.387
			l-0.259,0.255c0,0-1.48,4.697-2.574,6.259c0,0-3.625,2.64-6.266,2.682l-0.492,0.178c0,0,0.631,0.171,0.489,0.338
			c-0.144,0.167-0.261,0.385-0.261,0.385l0.81,0.275l-0.327,0.576l0.423,0.403l-0.134,0.384l0.707,0.326l-0.234,0.438l0.859,0.252
			C253.078,458.146,258.882,455.046,259.557,454.203z"/>
		<path fill="#FFFFFF" d="M255.182,448.953c0.157-0.194,2.434-2.952,3.136-5.249c0.698-2.298,0.447-1.309,0.447-1.309l-0.202-0.544
			l-0.19-0.193l-0.133,0.128c0,0-0.117,0.346-0.204,0.101c-0.091-0.246,0.135-0.771,0.017-0.682s-0.105,0.564-0.324,0.448
			c-0.22-0.117-0.188-0.839-0.188-0.839l-0.429,0.626l-0.121-0.902l-0.39,0.386l-0.189-0.582l-0.323,0.191l-0.126-0.387
			l-0.259,0.255c0,0-1.48,4.697-2.574,6.259c0,0-3.625,2.64-6.266,2.682l-0.492,0.178c0,0,0.631,0.171,0.489,0.338
			c-0.144,0.167-0.261,0.385-0.261,0.385l0.81,0.275l-0.327,0.576l0.423,0.403l-0.134,0.384l0.707,0.326l-0.234,0.438l0.859,0.252
			C248.703,452.896,254.507,449.796,255.182,448.953z"/>
		<path fill="#FFFFFF" d="M250.307,442.578c0.157-0.194,2.434-2.952,3.136-5.249c0.698-2.298,0.447-1.309,0.447-1.309l-0.202-0.544
			l-0.19-0.193l-0.133,0.128c0,0-0.117,0.346-0.204,0.101c-0.091-0.246,0.135-0.771,0.017-0.682s-0.105,0.564-0.324,0.448
			c-0.22-0.117-0.188-0.839-0.188-0.839l-0.429,0.626l-0.121-0.902l-0.39,0.386l-0.189-0.582l-0.323,0.191l-0.126-0.387
			l-0.259,0.255c0,0-1.48,4.697-2.574,6.259c0,0-3.625,2.64-6.266,2.682l-0.492,0.178c0,0,0.631,0.171,0.489,0.338
			c-0.144,0.167-0.261,0.385-0.261,0.385l0.81,0.275l-0.327,0.576l0.423,0.403l-0.134,0.384l0.707,0.326l-0.234,0.438l0.859,0.252
			C243.828,446.521,249.632,443.421,250.307,442.578z"/>
	</g>
</g>
<g>
	<polygon fill="#FFFFFF" points="348.562,434.052 357.388,461.213 385.947,461.213 362.842,478 371.668,505.162 348.562,488.375 
		325.458,505.162 334.282,478 311.178,461.213 339.737,461.213 	"/>
	<polygon fill="#C7C2C5" points="348.548,434.12 348.549,472.196 357.388,461.213 	"/>
	<polyline fill="#C7C2C5" points="311.465,461.312 348.549,472.145 339.632,461.228 311.132,461.228 	"/>
	<polyline fill="#C7C2C5" points="348.548,472.136 348.548,472.131 334.298,477.978 325.465,505.228 	"/>
	<polygon fill="#C7C2C5" points="348.548,488.312 348.548,472.145 371.715,505.228 	"/>
	<polyline fill="#C7C2C5" points="348.548,472.12 385.715,461.312 362.715,477.978 	"/>
</g>
<g>
	<g>
		<path fill="#FFFFFF" d="M228.33,401.875c3.588-0.477,5.385-0.704,8.977-1.146c0.224,3.955,2.176,5.856,5.58,5.458
			c2.568-0.301,4.244-1.847,4.244-3.575c0-1.939-1.957-2.775-5.808-3.943c-2.455-0.756-3.682-1.13-6.135-1.87
			c-4.686-1.404-7.136-4.418-7.136-8.609c0-6.444,5.066-11.647,13.103-12.603c4.24-0.504,7.705,0.211,10.275,1.925
			c0-0.964,0-1.445,0-2.409c3.396-0.366,5.097-0.541,8.496-0.876c0,4.254,0,6.382,0,10.636c-3.399,0.335-5.1,0.511-8.496,0.877
			c-0.671-2.81-2.571-4.125-5.251-3.821c-2.178,0.247-3.517,1.561-3.517,3.079c0,1.781,1.676,2.261,4.915,3.313
			c2.457,0.794,3.686,1.194,6.144,2.005c5.755,1.909,8.553,4.588,8.553,9.408c0,7.073-5.26,11.844-14.363,12.859
			c-4.076,0.455-7.478-0.031-10.546-1.488c0,0.797,0,1.192,0,1.989c-3.614,0.444-5.425,0.676-9.035,1.155
			C228.33,409.292,228.33,406.822,228.33,401.875z"/>
		<path fill="#FFFFFF" d="M271.223,377.792c3.804-3.735,8.957-5.988,15.063-6.417c6.331-0.444,11.515,1.085,15.413,4.387
			c3.811,3.229,5.831,7.828,5.831,13.225s-2.019,10.172-5.831,13.811c-3.899,3.722-9.082,5.855-15.413,6.3
			c-6.106,0.429-11.286-0.979-15.119-4.105c-3.858-3.147-5.875-7.647-5.875-13.044C265.292,386.498,267.306,381.638,271.223,377.792
			z M291.329,390.051c0-7.492-1.401-11.021-4.932-10.774c-3.529,0.247-4.928,3.974-4.928,11.466c0,7.545,1.398,11.05,4.928,10.803
			C289.928,401.298,291.329,397.596,291.329,390.051z"/>
		<path fill="#FFFFFF" d="M334.015,377.567c-5.053,0.098-7.184,3.573-7.184,10.855c0,7.178,2.188,10.671,6.847,10.579
			c3.93-0.077,6.735-2.989,7.634-8.239c4.02,0.959,6.029,1.449,10.049,2.451c-2.077,8.647-9.15,13.564-19.76,13.797
			c-6.118,0.134-11.28-1.527-15.151-4.891c-3.815-3.313-5.893-7.929-5.893-13.273c0-5.659,1.909-10.385,5.668-14.012
			c3.62-3.493,8.416-5.386,14.142-5.519c3.873-0.09,7.129,0.696,10.048,2.545c0-0.838,0-1.262,0-2.1
			c3.593-0.045,5.39-0.058,8.982-0.068c0,5.093,0,7.642,0,12.734c-3.593,0.011-5.39,0.021-8.982,0.066
			C339.74,379.253,337.551,377.499,334.015,377.567z"/>
		<path fill="#FFFFFF" d="M377.407,377.727c-5.052-0.135-7.185,3.241-7.185,10.523c0,7.178,2.188,10.772,6.847,10.896
			c3.929,0.104,6.733-2.68,7.632-7.888c4.018,1.145,6.026,1.725,10.042,2.912c-2.076,8.552-9.141,13.143-19.749,12.887
			c-6.118-0.147-11.284-2.045-15.157-5.586c-3.817-3.488-5.894-8.201-5.894-13.546c0-5.659,1.909-10.299,5.669-13.751
			c3.621-3.326,8.42-4.999,14.146-4.868c3.872,0.088,7.129,1.022,10.047,3.006c0-0.838,0-1.258,0-2.096
			c3.592,0.12,5.386,0.189,8.976,0.344c0,5.093,0,7.642,0,12.734c-3.59-0.154-5.384-0.228-8.976-0.348
			C383.131,379.676,380.942,377.822,377.407,377.727z"/>
		<path fill="#FFFFFF" d="M396.817,399.823c1.145,0.054,1.716,0.081,2.86,0.139c0.001-8.718,0.001-13.076,0-21.795
			c-1.145-0.058-1.716-0.089-2.86-0.143c0-2.913,0-4.368,0-7.281c11.618,0.624,23.2,1.388,34.8,2.293c0,4.526,0,6.793,0,11.319
			c-3.582-0.303-5.376-0.447-8.96-0.716c0-1.613,0-2.421,0-4.034c-3.271-0.245-4.907-0.359-8.18-0.576c0,2.955,0,4.431,0,7.386
			c2.802,0.186,4.202,0.285,7.003,0.491c0,2.851,0,4.275,0,7.126c-2.801-0.206-4.201-0.305-7.003-0.49c0,2.913,0,4.368,0,7.281
			c3.272,0.217,4.908,0.334,8.18,0.579c0-1.844,0-2.769,0-4.612c3.584,0.269,5.378,0.414,8.96,0.717c0,4.757,0,7.134,0,11.891
			c-11.6-0.905-23.182-1.669-34.8-2.293C396.817,404.191,396.817,402.736,396.817,399.823z"/>
		<path fill="#FFFFFF" d="M454.372,404.32c0,2.913,0,4.368,0,7.281c-8.178-0.893-12.271-1.295-20.463-2.008c0-2.913,0-4.366,0-7.279
			c1.187,0.104,1.778,0.153,2.965,0.261c0-8.718,0-13.078,0-21.797c-1.187-0.107-1.778-0.157-2.965-0.261c0-2.913,0-4.37,0-7.283
			c8.417,0.732,12.621,1.146,21.022,2.067c13.07,1.434,19.138,4.975,19.138,12.885c0,3.931-1.839,6.461-5.575,7.882
			c2.298,4.247,3.445,6.374,5.741,10.636c0.892,0.116,1.339,0.175,2.23,0.294c0,2.913,0,4.366,0,7.279
			c-5.55-0.739-8.327-1.089-13.886-1.745c-3.059-6.354-4.588-9.521-7.648-15.851c-1.765-0.193-2.649-0.288-4.415-0.474
			c0,3.081,0,4.621,0,7.702C452.059,404.072,452.83,404.152,454.372,404.32z M450.517,389.815c0.47,0.049,0.703,0.073,1.173,0.123
			c4.524,0.48,6.705-0.417,6.705-3.141c0-2.567-2.122-4.129-6.593-4.604c-0.391-0.042-0.839-0.036-1.285-0.083
			C450.517,385.191,450.517,386.734,450.517,389.815z"/>
	</g>
</g>
<g>
	<circle fill="#193C2D" cx="347.602" cy="187.923" r="119"/>
	<circle fill="#FFFFFF" cx="347.602" cy="187.925" r="106"/>
	<polygon fill="#1A3D2E" points="333.817,162.229 368.817,134.895 403.817,158.895 395.15,201.229 347.483,203.229 	"/>
	<path fill="#1A3D2E" d="M266.483,190.229c1.516,0.696,10.668-21,27.334-35.667c0,0-7-25.333-7-33c0,0-22.666,9-27,14.333
		c0,0-10.667,25-11.334,40.667C248.483,176.562,254.15,184.562,266.483,190.229z"/>
	<path fill="#1A3D2E" d="M431.817,124.229l0.667,28.667l20.666,26.333C453.15,179.229,451.15,146.562,431.817,124.229z"/>
	<path fill="#1A3D2E" d="M320.151,95.229c0,0,31.999,0.666,41.666,9.333c0,0,18.001-11.333,28.667-13
		c0,0-26.001-16.667-69.001-6.667C321.483,84.895,326.817,89.229,320.151,95.229z"/>
	<path fill="none" stroke="#061922" stroke-width="1.9843" d="M284.151,125.562c0,0,14.666-20.333,41.332-32.667"/>
	<line fill="none" stroke="#061922" stroke-width="1.9843" x1="290.483" y1="153.895" x2="337.483" y2="163.562"/>
	<path fill="none" stroke="#061922" stroke-width="1.9843" d="M360.817,100.895c0,0,6.667,23.667,7.667,37.333"/>
	<line fill="none" stroke="#061922" stroke-width="1.9843" x1="399.817" y1="160.229" x2="435.817" y2="151.562"/>
	<line fill="none" stroke="#061922" stroke-width="1.9843" x1="265.817" y1="184.895" x2="269.483" y2="213.229"/>
	<path fill="none" stroke="#061922" stroke-width="1.9843" d="M252.151,175.895c0,0-11.334-0.333-10,1.333"/>
	<line fill="none" stroke="#061922" stroke-width="1.9843" x1="261.151" y1="137.895" x2="255.817" y2="129.895"/>
	<line fill="none" stroke="#061922" stroke-width="1.9843" x1="350.15" y1="199.229" x2="339.483" y2="219.229"/>
	<line fill="none" stroke="#061922" stroke-width="1.9843" x1="393.15" y1="196.895" x2="403.817" y2="211.229"/>
</g>
<g>
	<g>
		<g>
			<path fill="#FFFFFF" stroke="#FFFFFF" stroke-width="39.685" d="M36.37,287.304c1.585,0.237,2.378,0.354,3.963,0.587
				c0.004-14.542,0.008-29.083,0.011-43.624c-1.59-0.062-2.384-0.093-3.974-0.156c0-5.773,0-8.659,0-14.433
				c9.516,0.03,19.031,0.058,28.547,0.085c-0.01,6.169-0.015,9.255-0.024,15.426c-1.59-0.058-2.383-0.087-3.973-0.144
				c-0.026,15.254-0.042,30.51-0.064,45.764c4.541,0.624,6.812,0.93,11.354,1.528c0.013-6.672,0.02-10.01,0.032-16.681
				c4.982,0.484,7.472,0.724,12.456,1.188c-0.026,11.052-0.049,22.104-0.072,33.156c-16.116-2.525-32.202-5.284-48.256-8.264
				C36.37,295.964,36.37,293.077,36.37,287.304z"/>
			<path fill="#FFFFFF" stroke="#FFFFFF" stroke-width="39.685" d="M87.46,294.292c1.588,0.199,2.383,0.297,3.971,0.492
				c0.04-16.228,0.079-32.455,0.121-48.681c-1.591-0.052-2.386-0.079-3.977-0.131c0.016-6.459,0.022-9.688,0.038-16.146
				c16.146,0.042,32.292,0.077,48.438,0.116c-0.034,10.869-0.052,16.304-0.086,27.173c-4.991-0.203-7.485-0.308-12.476-0.524
				c0.012-3.804,0.017-5.706,0.028-9.51c-4.554-0.131-6.832-0.197-11.386-0.334c-0.02,6.841-0.028,10.261-0.048,17.102
				c3.897,0.227,5.846,0.338,9.744,0.554c-0.021,6.702-0.032,10.054-0.053,16.755c-3.896-0.319-5.844-0.48-9.739-0.812
				c-0.02,6.744-0.029,10.115-0.049,16.859c4.549,0.513,6.824,0.764,11.374,1.254c0.014-4.347,0.018-6.521,0.031-10.869
				c4.987,0.454,7.481,0.674,12.471,1.102c-0.036,11.423-0.054,17.134-0.09,28.554c-16.143-2.041-32.26-4.321-48.352-6.81
				C87.438,303.981,87.444,300.751,87.46,294.292z"/>
			<path fill="#FFFFFF" stroke="#FFFFFF" stroke-width="39.685" d="M156.174,301.732c-0.023,7.188-0.032,10.782-0.056,17.969
				c-7.579-0.868-11.367-1.32-18.942-2.274c0.022-7.008,0.03-10.512,0.053-17.52c1.154,0.115,1.732,0.174,2.887,0.29
				c3.638-17.49,7.225-34.994,10.772-52.506c-1.622-0.042-2.433-0.063-4.055-0.105c0.022-7.048,0.036-10.572,0.059-17.622
				c12.402,0.026,24.806,0.051,37.208,0.07c-0.023,7.366-0.037,11.049-0.061,18.417c-1.653-0.035-2.481-0.051-4.135-0.087
				c3.491,18.737,6.933,37.482,10.359,56.232c1.187,0.091,1.78,0.134,2.967,0.224c-0.023,7.488-0.033,11.232-0.057,18.722
				c-10.678-0.991-16.015-1.528-26.685-2.685c0.023-7.28,0.034-10.918,0.058-18.193c1.591,0.137,2.387,0.206,3.979,0.342
				c-0.856-5.492-1.285-8.231-2.142-13.699c-5.272-0.371-7.909-0.565-13.181-0.964c-1.016,5.244-1.521,7.858-2.537,13.066
				C154.069,301.541,154.771,301.605,156.174,301.732z M166.701,278.579c-1.683-10.471-2.524-15.682-4.207-26.049
				c-2.062,10.259-3.092,15.357-5.152,25.484C161.085,278.245,162.957,278.358,166.701,278.579z"/>
			<path fill="#FFFFFF" stroke="#FFFFFF" stroke-width="39.685" d="M194.086,304.882c1.592,0.117,2.39,0.176,3.981,0.29
				c0.054-18.766,0.113-37.535,0.169-56.303c-1.592-0.031-2.388-0.046-3.979-0.077c0.022-7.498,0.036-11.246,0.059-18.742
				c10.452,0.016,15.676,0.024,26.129,0.038c10.218,0.013,18.048,1.694,23.692,9.71c7.571,10.751,9.6,25.9,9.587,39.307
				c-0.013,13.336-2.076,28.472-9.93,38.98c-5.114,6.843-12.91,8.572-23.608,7.749c-10.465-0.806-15.696-1.248-26.155-2.213
				C194.053,316.125,194.062,312.376,194.086,304.882z M220.94,305.321c9.414-0.816,10.603-17.678,10.613-27.355
				c0.011-10.032-1.353-26.41-10.93-27.87c-0.544-0.083-1.17-0.02-1.795,0.107c-0.048,18.235-0.099,36.47-0.149,54.703
				C219.46,305.091,220.332,305.374,220.94,305.321z"/>
			<path fill="#FFFFFF" stroke="#FFFFFF" stroke-width="39.685" d="M257.173,308.62c1.594,0.07,2.392,0.105,3.985,0.173
				c0.039-19.651,0.079-39.305,0.118-58.958c-1.592-0.018-2.39-0.026-3.981-0.046c0.017-7.862,0.029-11.796,0.046-19.659
				c16.147,0.012,32.294,0.025,48.441,0.034c-0.014,12.464-0.022,18.696-0.036,31.159c-4.996-0.043-7.492-0.067-12.488-0.122
				c0.006-4.427,0.007-6.64,0.013-11.067c-4.558-0.033-6.836-0.052-11.394-0.092c-0.014,8.071-0.018,12.106-0.031,20.178
				c3.903,0.065,5.855,0.098,9.76,0.155c-0.011,7.812-0.019,11.719-0.029,19.532c-3.905-0.083-5.857-0.127-9.763-0.226
				c-0.013,7.957-0.019,11.935-0.031,19.89c4.562,0.148,6.843,0.218,11.406,0.345c0.007-5.059,0.013-7.586,0.02-12.645
				c5,0.116,7.498,0.17,12.498,0.262c-0.012,10.911-0.026,21.826-0.035,32.742c-16.187-0.434-32.368-1.102-48.54-1.995
				C257.147,320.415,257.156,316.481,257.173,308.62z"/>
			<path fill="#FFFFFF" stroke="#FFFFFF" stroke-width="39.685" d="M337.499,310.674c-0.003,8.062-0.006,12.098-0.009,20.163
				c-9.539-0.083-19.078-0.238-28.615-0.48c0.008-8.028,0.012-12.042,0.02-20.067c1.656,0.033,2.484,0.048,4.142,0.079
				c0.017-20.038,0.039-40.076,0.054-60.116c-1.654-0.008-2.48-0.011-4.135-0.02c0.008-8.028,0.014-12.042,0.021-20.07
				c9.776,0.006,19.554,0.008,29.33,0.008c16.875-0.688,27.11,10.462,26.763,29.306c-0.196,10.65-2.569,18.58-7.802,23.812
				c3.22,10.966,4.831,16.447,8.055,27.394c1.251-0.009,1.876-0.014,3.127-0.022c0.004,8.062,0.002,12.096,0.006,20.159
				c-7.788,0.074-11.681,0.088-19.469,0.074c-3.572-13.845-7.129-27.692-10.701-41.536c-2.469-0.012-3.701-0.018-6.17-0.035
				c-0.004,8.523-0.006,12.784-0.01,21.308C334.263,310.65,335.342,310.659,337.499,310.674z M332.123,271.636
				c0.656,0.002,0.983,0.005,1.64,0.008c6.325,0.029,9.369-3.161,9.371-10.707c0.002-7.111-2.96-10.741-9.204-10.756
				c-0.546,0-1.172,0.144-1.797,0.142C332.129,258.848,332.127,263.109,332.123,271.636z"/>
			<path fill="#FFFFFF" stroke="#FFFFFF" stroke-width="39.685" d="M369.62,310.652c1.595-0.013,2.389-0.023,3.983-0.039
				c-0.009-20.097-0.02-40.195-0.031-60.294c-1.592,0.004-2.389,0.007-3.98,0.011c-0.003-8.063-0.005-12.095-0.008-20.158
				c10.998-0.002,21.997-0.005,32.995-0.011c14.313-0.799,22.448,10.795,22.121,26.003c-0.233,10.859-9.335,22.055-9.335,22.055
				c0.047,0.576,10.846,11.278,11.05,23.065c0.251,14.46-6.58,28.849-21.06,28.783c-11.906,0.373-23.816,0.615-35.727,0.74
				C369.625,322.744,369.624,318.712,369.62,310.652z M395.991,271.155c5.856-0.063,8.586-3.269,8.577-10.469
				c-0.009-7.199-2.511-9.772-8.208-9.739c-1.467,0.007-2.199,0.013-3.666,0.02c0.008,8.089,0.01,12.134,0.018,20.224
				C394.023,271.177,394.68,271.17,395.991,271.155z M396.032,309.114c5.861-0.118,8.67-3.505,8.661-10.848
				c-0.01-7.92-2.513-10.604-8.293-10.517c-1.469,0.021-2.203,0.033-3.672,0.052c0.008,8.552,0.013,12.829,0.021,21.378
				C394.062,309.155,394.72,309.139,396.032,309.114z"/>
			<path fill="#FFFFFF" stroke="#FFFFFF" stroke-width="39.685" d="M438.329,242.637c5.2-9.249,12.452-14.206,20.954-14.206
				c8.814,0,16.124,4.928,21.488,14.103c6.018,10.294,8.183,23.159,8.213,35.35c0.03,12.386-2.134,25.387-8.02,35.991
				c-5.325,9.593-12.612,15.048-21.441,15.613c-8.517,0.546-15.86-4.025-21.13-13.13c-6.161-10.641-8.247-24.023-8.271-36.586
				C430.097,267.031,432.189,253.558,438.329,242.637z M466.427,279.148c-0.023-9.355-2.382-29.577-6.938-29.524
				c-4.794,0.057-6.823,20.485-6.803,29.969c0.02,9.321,2.398,29.817,6.943,29.676C464.439,309.122,466.451,288.738,466.427,279.148
				z"/>
			<path fill="#FFFFFF" stroke="#FFFFFF" stroke-width="39.685" d="M509.748,304.886c0.023,7.497,0.035,11.246,0.059,18.744
				c-7.587,0.698-11.385,1.027-18.975,1.644c-0.022-7.627-0.029-11.442-0.052-19.067c1.155-0.074,1.734-0.113,2.89-0.189
				c3.462-19.089,6.942-38.173,10.447-57.253c-1.623,0.031-2.437,0.046-4.06,0.076c-0.022-7.51-0.032-11.265-0.054-18.775
				c12.402-0.018,24.805-0.04,37.207-0.063c0.023,7.228,0.035,10.842,0.059,18.067c-1.653,0.04-2.481,0.057-4.135,0.094
				c3.523,17.987,7.094,35.962,10.705,53.926c1.186-0.107,1.777-0.162,2.963-0.271c0.023,7.195,0.037,10.795,0.061,17.99
				c-10.667,1.218-16.005,1.781-26.68,2.831c-0.023-7.42-0.033-11.127-0.057-18.545c1.592-0.127,2.389-0.191,3.98-0.32
				c-0.892-5.402-1.337-8.11-2.229-13.541c-5.274,0.345-7.911,0.511-13.187,0.827c-0.982,5.621-1.474,8.439-2.456,14.084
				C507.642,305.043,508.344,304.991,509.748,304.886z M520.128,279.537c-1.75-10.477-2.626-15.74-4.376-26.311
				c-1.995,10.665-2.992,16.026-4.988,26.796C514.509,279.834,516.383,279.736,520.128,279.537z"/>
			<path fill="#FFFFFF" stroke="#FFFFFF" stroke-width="39.685" d="M576.19,298.924c0.021,6.911,0.031,10.366,0.053,17.277
				c-9.501,1.247-19.009,2.419-28.525,3.508c-0.023-7.188-0.035-10.781-0.059-17.971c1.653-0.15,2.48-0.226,4.134-0.381
				c-0.066-17.835-0.111-35.67-0.174-53.505c-1.653,0.042-2.48,0.062-4.134,0.102c-0.023-7.188-0.035-10.782-0.059-17.971
				c9.775-0.02,19.552-0.04,29.327-0.062c14.235-0.53,27.129,6.228,26.82,23.954c-0.152,8.715-2.531,15.366-7.74,20.104
				c3.236,8.864,4.854,13.234,8.087,21.838c1.246-0.147,1.868-0.222,3.114-0.373c0.018,6.571,0.024,9.858,0.042,16.428
				c-7.751,1.161-11.628,1.715-19.384,2.786c-3.648-11.334-7.222-22.697-10.779-34.07c-2.463,0.193-3.696,0.288-6.16,0.476
				c0.023,7.368,0.037,11.053,0.061,18.421C572.966,299.262,574.04,299.151,576.19,298.924z M570.706,265.777
				c0.655-0.036,0.982-0.055,1.638-0.089c6.315-0.345,9.348-3.233,9.328-9.643c-0.019-6.041-2.992-9.037-9.231-8.865
				c-0.546,0.015-1.168,0.158-1.792,0.174C570.672,254.723,570.683,258.408,570.706,265.777z"/>
			<path fill="#FFFFFF" stroke="#FFFFFF" stroke-width="39.685" d="M608.198,295.305c1.588-0.191,2.384-0.288,3.972-0.482
				c-0.041-16.237-0.081-32.474-0.122-48.71c-1.591,0.052-2.385,0.078-3.976,0.129c-0.017-6.557-0.025-9.837-0.042-16.395
				c10.452-0.026,15.679-0.04,26.131-0.07c10.218-0.028,18.026,1.322,23.717,7.269c6.895,7.204,9.696,18.313,9.665,28.662
				c-0.033,10.988-3.001,22.421-9.786,30.692c-5.144,6.268-12.81,9.415-23.459,11.18c-10.417,1.729-15.628,2.552-26.056,4.119
				C608.225,305.141,608.215,301.861,608.198,295.305z M634.967,290.785c7.157-0.938,10.491-8.516,10.473-23.397
				c-0.019-14.555-3.691-21.632-11.018-21.363c-0.623,0.023-1.168,0.042-1.792,0.179c0.03,14.883,0.056,29.767,0.082,44.651
				C633.49,290.866,634.268,290.876,634.967,290.785z"/>
		</g>
	</g>
	<g>
		<g>
			<path fill="#FFFFFF" stroke="#1A3D2E" stroke-width="31.1811" d="M36.37,287.304c1.585,0.237,2.378,0.354,3.963,0.587
				c0.004-14.542,0.008-29.083,0.011-43.624c-1.59-0.062-2.384-0.093-3.974-0.156c0-5.773,0-8.659,0-14.433
				c9.516,0.03,19.031,0.058,28.547,0.085c-0.01,6.169-0.015,9.255-0.024,15.426c-1.59-0.058-2.383-0.087-3.973-0.144
				c-0.026,15.254-0.042,30.51-0.064,45.764c4.541,0.624,6.812,0.93,11.354,1.528c0.013-6.672,0.02-10.01,0.032-16.681
				c4.982,0.484,7.472,0.724,12.456,1.188c-0.026,11.052-0.049,22.104-0.072,33.156c-16.116-2.525-32.202-5.284-48.256-8.264
				C36.37,295.964,36.37,293.077,36.37,287.304z"/>
			<path fill="#FFFFFF" stroke="#1A3D2E" stroke-width="31.1811" d="M87.46,294.292c1.588,0.199,2.383,0.297,3.971,0.492
				c0.04-16.228,0.079-32.455,0.121-48.681c-1.591-0.052-2.386-0.079-3.977-0.131c0.016-6.459,0.022-9.688,0.038-16.146
				c16.146,0.042,32.292,0.077,48.438,0.116c-0.034,10.869-0.052,16.304-0.086,27.173c-4.991-0.203-7.485-0.308-12.476-0.524
				c0.012-3.804,0.017-5.706,0.028-9.51c-4.554-0.131-6.832-0.197-11.386-0.334c-0.02,6.841-0.028,10.261-0.048,17.102
				c3.897,0.227,5.846,0.338,9.744,0.554c-0.021,6.702-0.032,10.054-0.053,16.755c-3.896-0.319-5.844-0.48-9.739-0.812
				c-0.02,6.744-0.029,10.115-0.049,16.859c4.549,0.513,6.824,0.764,11.374,1.254c0.014-4.347,0.018-6.521,0.031-10.869
				c4.987,0.454,7.481,0.674,12.471,1.102c-0.036,11.423-0.054,17.134-0.09,28.554c-16.143-2.041-32.26-4.321-48.352-6.81
				C87.438,303.981,87.444,300.751,87.46,294.292z"/>
			<path fill="#FFFFFF" stroke="#1A3D2E" stroke-width="31.1811" d="M156.174,301.732c-0.023,7.188-0.032,10.782-0.056,17.969
				c-7.579-0.868-11.367-1.32-18.942-2.274c0.022-7.008,0.03-10.512,0.053-17.52c1.154,0.115,1.732,0.174,2.887,0.29
				c3.638-17.49,7.225-34.994,10.772-52.506c-1.622-0.042-2.433-0.063-4.055-0.105c0.022-7.048,0.036-10.572,0.059-17.622
				c12.402,0.026,24.806,0.051,37.208,0.07c-0.023,7.366-0.037,11.049-0.061,18.417c-1.653-0.035-2.481-0.051-4.135-0.087
				c3.491,18.737,6.933,37.482,10.359,56.232c1.187,0.091,1.78,0.134,2.967,0.224c-0.023,7.488-0.033,11.232-0.057,18.722
				c-10.678-0.991-16.015-1.528-26.685-2.685c0.023-7.28,0.034-10.918,0.058-18.193c1.591,0.137,2.387,0.206,3.979,0.342
				c-0.856-5.492-1.285-8.231-2.142-13.699c-5.272-0.371-7.909-0.565-13.181-0.964c-1.016,5.244-1.521,7.858-2.537,13.066
				C154.069,301.541,154.771,301.605,156.174,301.732z M166.701,278.579c-1.683-10.471-2.524-15.682-4.207-26.049
				c-2.062,10.259-3.092,15.357-5.152,25.484C161.085,278.245,162.957,278.358,166.701,278.579z"/>
			<path fill="#FFFFFF" stroke="#1A3D2E" stroke-width="31.1811" d="M194.086,304.882c1.592,0.117,2.39,0.176,3.981,0.29
				c0.054-18.766,0.113-37.535,0.169-56.303c-1.592-0.031-2.388-0.046-3.979-0.077c0.022-7.498,0.036-11.246,0.059-18.742
				c10.452,0.016,15.676,0.024,26.129,0.038c10.218,0.013,18.048,1.694,23.692,9.71c7.571,10.751,9.6,25.9,9.587,39.307
				c-0.013,13.336-2.076,28.472-9.93,38.98c-5.114,6.843-12.91,8.572-23.608,7.749c-10.465-0.806-15.696-1.248-26.155-2.213
				C194.053,316.125,194.062,312.376,194.086,304.882z M220.94,305.321c9.414-0.816,10.603-17.678,10.613-27.355
				c0.011-10.032-1.353-26.41-10.93-27.87c-0.544-0.083-1.17-0.02-1.795,0.107c-0.048,18.235-0.099,36.47-0.149,54.703
				C219.46,305.091,220.332,305.374,220.94,305.321z"/>
			<path fill="#FFFFFF" stroke="#1A3D2E" stroke-width="31.1811" d="M257.173,308.62c1.594,0.07,2.392,0.105,3.985,0.173
				c0.039-19.651,0.079-39.305,0.118-58.958c-1.592-0.018-2.39-0.026-3.981-0.046c0.017-7.862,0.029-11.796,0.046-19.659
				c16.147,0.012,32.294,0.025,48.441,0.034c-0.014,12.464-0.022,18.696-0.036,31.159c-4.996-0.043-7.492-0.067-12.488-0.122
				c0.006-4.427,0.007-6.64,0.013-11.067c-4.558-0.033-6.836-0.052-11.394-0.092c-0.014,8.071-0.018,12.106-0.031,20.178
				c3.903,0.065,5.855,0.098,9.76,0.155c-0.011,7.812-0.019,11.719-0.029,19.532c-3.905-0.083-5.857-0.127-9.763-0.226
				c-0.013,7.957-0.019,11.935-0.031,19.89c4.562,0.148,6.843,0.218,11.406,0.345c0.007-5.059,0.013-7.586,0.02-12.645
				c5,0.116,7.498,0.17,12.498,0.262c-0.012,10.911-0.026,21.826-0.035,32.742c-16.187-0.434-32.368-1.102-48.54-1.995
				C257.147,320.415,257.156,316.481,257.173,308.62z"/>
			<path fill="#FFFFFF" stroke="#1A3D2E" stroke-width="31.1811" d="M337.499,310.674c-0.003,8.062-0.006,12.098-0.009,20.163
				c-9.539-0.083-19.078-0.238-28.615-0.48c0.008-8.028,0.012-12.042,0.02-20.067c1.656,0.033,2.484,0.048,4.142,0.079
				c0.017-20.038,0.039-40.076,0.054-60.116c-1.654-0.008-2.48-0.011-4.135-0.02c0.008-8.028,0.014-12.042,0.021-20.07
				c9.776,0.006,19.554,0.008,29.33,0.008c16.875-0.688,27.11,10.462,26.763,29.306c-0.196,10.65-2.569,18.58-7.802,23.812
				c3.22,10.966,4.831,16.447,8.055,27.394c1.251-0.009,1.876-0.014,3.127-0.022c0.004,8.062,0.002,12.096,0.006,20.159
				c-7.788,0.074-11.681,0.088-19.469,0.074c-3.572-13.845-7.129-27.692-10.701-41.536c-2.469-0.012-3.701-0.018-6.17-0.035
				c-0.004,8.523-0.006,12.784-0.01,21.308C334.263,310.65,335.342,310.659,337.499,310.674z M332.123,271.636
				c0.656,0.002,0.983,0.005,1.64,0.008c6.325,0.029,9.369-3.161,9.371-10.707c0.002-7.111-2.96-10.741-9.204-10.756
				c-0.546,0-1.172,0.144-1.797,0.142C332.129,258.848,332.127,263.109,332.123,271.636z"/>
			<path fill="#FFFFFF" stroke="#1A3D2E" stroke-width="31.1811" d="M369.62,310.652c1.595-0.013,2.389-0.023,3.983-0.039
				c-0.009-20.097-0.02-40.195-0.031-60.294c-1.592,0.004-2.389,0.007-3.98,0.011c-0.003-8.063-0.005-12.095-0.008-20.158
				c10.998-0.002,21.997-0.005,32.995-0.011c14.313-0.799,22.448,10.795,22.121,26.003c-0.233,10.859-9.335,22.055-9.335,22.055
				c0.047,0.576,10.846,11.278,11.05,23.065c0.251,14.46-6.58,28.849-21.06,28.783c-11.906,0.373-23.816,0.615-35.727,0.74
				C369.625,322.744,369.624,318.712,369.62,310.652z M395.991,271.155c5.856-0.063,8.586-3.269,8.577-10.469
				c-0.009-7.199-2.511-9.772-8.208-9.739c-1.467,0.007-2.199,0.013-3.666,0.02c0.008,8.089,0.01,12.134,0.018,20.224
				C394.023,271.177,394.68,271.17,395.991,271.155z M396.032,309.114c5.861-0.118,8.67-3.505,8.661-10.848
				c-0.01-7.92-2.513-10.604-8.293-10.517c-1.469,0.021-2.203,0.033-3.672,0.052c0.008,8.552,0.013,12.829,0.021,21.378
				C394.062,309.155,394.72,309.139,396.032,309.114z"/>
			<path fill="#FFFFFF" stroke="#1A3D2E" stroke-width="31.1811" d="M438.329,242.637c5.2-9.249,12.452-14.206,20.954-14.206
				c8.814,0,16.124,4.928,21.488,14.103c6.018,10.294,8.183,23.159,8.213,35.35c0.03,12.386-2.134,25.387-8.02,35.991
				c-5.325,9.593-12.612,15.048-21.441,15.613c-8.517,0.546-15.86-4.025-21.13-13.13c-6.161-10.641-8.247-24.023-8.271-36.586
				C430.097,267.031,432.189,253.558,438.329,242.637z M466.427,279.148c-0.023-9.355-2.382-29.577-6.938-29.524
				c-4.794,0.057-6.823,20.485-6.803,29.969c0.02,9.321,2.398,29.817,6.943,29.676C464.439,309.122,466.451,288.738,466.427,279.148
				z"/>
			<path fill="#FFFFFF" stroke="#1A3D2E" stroke-width="31.1811" d="M509.748,304.886c0.023,7.497,0.035,11.246,0.059,18.744
				c-7.587,0.698-11.385,1.027-18.975,1.644c-0.022-7.627-0.029-11.442-0.052-19.067c1.155-0.074,1.734-0.113,2.89-0.189
				c3.462-19.089,6.942-38.173,10.447-57.253c-1.623,0.031-2.437,0.046-4.06,0.076c-0.022-7.51-0.032-11.265-0.054-18.775
				c12.402-0.018,24.805-0.04,37.207-0.063c0.023,7.228,0.035,10.842,0.059,18.067c-1.653,0.04-2.481,0.057-4.135,0.094
				c3.523,17.987,7.094,35.962,10.705,53.926c1.186-0.107,1.777-0.162,2.963-0.271c0.023,7.195,0.037,10.795,0.061,17.99
				c-10.667,1.218-16.005,1.781-26.68,2.831c-0.023-7.42-0.033-11.127-0.057-18.545c1.592-0.127,2.389-0.191,3.98-0.32
				c-0.892-5.402-1.337-8.11-2.229-13.541c-5.274,0.345-7.911,0.511-13.187,0.827c-0.982,5.621-1.474,8.439-2.456,14.084
				C507.642,305.043,508.344,304.991,509.748,304.886z M520.128,279.537c-1.75-10.477-2.626-15.74-4.376-26.311
				c-1.995,10.665-2.992,16.026-4.988,26.796C514.509,279.834,516.383,279.736,520.128,279.537z"/>
			<path fill="#FFFFFF" stroke="#1A3D2E" stroke-width="31.1811" d="M576.19,298.924c0.021,6.911,0.031,10.366,0.053,17.277
				c-9.501,1.247-19.009,2.419-28.525,3.508c-0.023-7.188-0.035-10.781-0.059-17.971c1.653-0.15,2.48-0.226,4.134-0.381
				c-0.066-17.835-0.111-35.67-0.174-53.505c-1.653,0.042-2.48,0.062-4.134,0.102c-0.023-7.188-0.035-10.782-0.059-17.971
				c9.775-0.02,19.552-0.04,29.327-0.062c14.235-0.53,27.129,6.228,26.82,23.954c-0.152,8.715-2.531,15.366-7.74,20.104
				c3.236,8.864,4.854,13.234,8.087,21.838c1.246-0.147,1.868-0.222,3.114-0.373c0.018,6.571,0.024,9.858,0.042,16.428
				c-7.751,1.161-11.628,1.715-19.384,2.786c-3.648-11.334-7.222-22.697-10.779-34.07c-2.463,0.193-3.696,0.288-6.16,0.476
				c0.023,7.368,0.037,11.053,0.061,18.421C572.966,299.262,574.04,299.151,576.19,298.924z M570.706,265.777
				c0.655-0.036,0.982-0.055,1.638-0.089c6.315-0.345,9.348-3.233,9.328-9.643c-0.019-6.041-2.992-9.037-9.231-8.865
				c-0.546,0.015-1.168,0.158-1.792,0.174C570.672,254.723,570.683,258.408,570.706,265.777z"/>
			<path fill="#FFFFFF" stroke="#1A3D2E" stroke-width="31.1811" d="M608.198,295.305c1.588-0.191,2.384-0.288,3.972-0.482
				c-0.041-16.237-0.081-32.474-0.122-48.71c-1.591,0.052-2.385,0.078-3.976,0.129c-0.017-6.557-0.025-9.837-0.042-16.395
				c10.452-0.026,15.679-0.04,26.131-0.07c10.218-0.028,18.026,1.322,23.717,7.269c6.895,7.204,9.696,18.313,9.665,28.662
				c-0.033,10.988-3.001,22.421-9.786,30.692c-5.144,6.268-12.81,9.415-23.459,11.18c-10.417,1.729-15.628,2.552-26.056,4.119
				C608.225,305.141,608.215,301.861,608.198,295.305z M634.967,290.785c7.157-0.938,10.491-8.516,10.473-23.397
				c-0.019-14.555-3.691-21.632-11.018-21.363c-0.623,0.023-1.168,0.042-1.792,0.179c0.03,14.883,0.056,29.767,0.082,44.651
				C633.49,290.866,634.268,290.876,634.967,290.785z"/>
		</g>
	</g>
	<g>
		<g>
			<path fill="#FFFFFF" d="M36.37,287.304c1.585,0.237,2.378,0.354,3.963,0.587c0.004-14.542,0.008-29.083,0.011-43.624
				c-1.59-0.062-2.384-0.093-3.974-0.156c0-5.773,0-8.659,0-14.433c9.516,0.03,19.031,0.058,28.547,0.085
				c-0.01,6.169-0.015,9.255-0.024,15.426c-1.59-0.058-2.383-0.087-3.973-0.144c-0.026,15.254-0.042,30.51-0.064,45.764
				c4.541,0.624,6.812,0.93,11.354,1.528c0.013-6.672,0.02-10.01,0.032-16.681c4.982,0.484,7.472,0.724,12.456,1.188
				c-0.026,11.052-0.049,22.104-0.072,33.156c-16.116-2.525-32.202-5.284-48.256-8.264C36.37,295.964,36.37,293.077,36.37,287.304z"
				/>
			<path fill="#FFFFFF" d="M87.46,294.292c1.588,0.199,2.383,0.297,3.971,0.492c0.04-16.228,0.079-32.455,0.121-48.681
				c-1.591-0.052-2.386-0.079-3.977-0.131c0.016-6.459,0.022-9.688,0.038-16.146c16.146,0.042,32.292,0.077,48.438,0.116
				c-0.034,10.869-0.052,16.304-0.086,27.173c-4.991-0.203-7.485-0.308-12.476-0.524c0.012-3.804,0.017-5.706,0.028-9.51
				c-4.554-0.131-6.832-0.197-11.386-0.334c-0.02,6.841-0.028,10.261-0.048,17.102c3.897,0.227,5.846,0.338,9.744,0.554
				c-0.021,6.702-0.032,10.054-0.053,16.755c-3.896-0.319-5.844-0.48-9.739-0.812c-0.02,6.744-0.029,10.115-0.049,16.859
				c4.549,0.513,6.824,0.764,11.374,1.254c0.014-4.347,0.018-6.521,0.031-10.869c4.987,0.454,7.481,0.674,12.471,1.102
				c-0.036,11.423-0.054,17.134-0.09,28.554c-16.143-2.041-32.26-4.321-48.352-6.81C87.438,303.981,87.444,300.751,87.46,294.292z"
				/>
			<path fill="#FFFFFF" d="M156.174,301.732c-0.023,7.188-0.032,10.782-0.056,17.969c-7.579-0.868-11.367-1.32-18.942-2.274
				c0.022-7.008,0.03-10.512,0.053-17.52c1.154,0.115,1.732,0.174,2.887,0.29c3.638-17.49,7.225-34.994,10.772-52.506
				c-1.622-0.042-2.433-0.063-4.055-0.105c0.022-7.048,0.036-10.572,0.059-17.622c12.402,0.026,24.806,0.051,37.208,0.07
				c-0.023,7.366-0.037,11.049-0.061,18.417c-1.653-0.035-2.481-0.051-4.135-0.087c3.491,18.737,6.933,37.482,10.359,56.232
				c1.187,0.091,1.78,0.134,2.967,0.224c-0.023,7.488-0.033,11.232-0.057,18.722c-10.678-0.991-16.015-1.528-26.685-2.685
				c0.023-7.28,0.034-10.918,0.058-18.193c1.591,0.137,2.387,0.206,3.979,0.342c-0.856-5.492-1.285-8.231-2.142-13.699
				c-5.272-0.371-7.909-0.565-13.181-0.964c-1.016,5.244-1.521,7.858-2.537,13.066C154.069,301.541,154.771,301.605,156.174,301.732
				z M166.701,278.579c-1.683-10.471-2.524-15.682-4.207-26.049c-2.062,10.259-3.092,15.357-5.152,25.484
				C161.085,278.245,162.957,278.358,166.701,278.579z"/>
			<path fill="#FFFFFF" d="M194.086,304.882c1.592,0.117,2.39,0.176,3.981,0.29c0.054-18.766,0.113-37.535,0.169-56.303
				c-1.592-0.031-2.388-0.046-3.979-0.077c0.022-7.498,0.036-11.246,0.059-18.742c10.452,0.016,15.676,0.024,26.129,0.038
				c10.218,0.013,18.048,1.694,23.692,9.71c7.571,10.751,9.6,25.9,9.587,39.307c-0.013,13.336-2.076,28.472-9.93,38.98
				c-5.114,6.843-12.91,8.572-23.608,7.749c-10.465-0.806-15.696-1.248-26.155-2.213
				C194.053,316.125,194.062,312.376,194.086,304.882z M220.94,305.321c9.414-0.816,10.603-17.678,10.613-27.355
				c0.011-10.032-1.353-26.41-10.93-27.87c-0.544-0.083-1.17-0.02-1.795,0.107c-0.048,18.235-0.099,36.47-0.149,54.703
				C219.46,305.091,220.332,305.374,220.94,305.321z"/>
			<path fill="#FFFFFF" d="M257.173,308.62c1.594,0.07,2.392,0.105,3.985,0.173c0.039-19.651,0.079-39.305,0.118-58.958
				c-1.592-0.018-2.39-0.026-3.981-0.046c0.017-7.862,0.029-11.796,0.046-19.659c16.147,0.012,32.294,0.025,48.441,0.034
				c-0.014,12.464-0.022,18.696-0.036,31.159c-4.996-0.043-7.492-0.067-12.488-0.122c0.006-4.427,0.007-6.64,0.013-11.067
				c-4.558-0.033-6.836-0.052-11.394-0.092c-0.014,8.071-0.018,12.106-0.031,20.178c3.903,0.065,5.855,0.098,9.76,0.155
				c-0.011,7.812-0.019,11.719-0.029,19.532c-3.905-0.083-5.857-0.127-9.763-0.226c-0.013,7.957-0.019,11.935-0.031,19.89
				c4.562,0.148,6.843,0.218,11.406,0.345c0.007-5.059,0.013-7.586,0.02-12.645c5,0.116,7.498,0.17,12.498,0.262
				c-0.012,10.911-0.026,21.826-0.035,32.742c-16.187-0.434-32.368-1.102-48.54-1.995
				C257.147,320.415,257.156,316.481,257.173,308.62z"/>
			<path fill="#FFFFFF" d="M337.499,310.674c-0.003,8.062-0.006,12.098-0.009,20.163c-9.539-0.083-19.078-0.238-28.615-0.48
				c0.008-8.028,0.012-12.042,0.02-20.067c1.656,0.033,2.484,0.048,4.142,0.079c0.017-20.038,0.039-40.076,0.054-60.116
				c-1.654-0.008-2.48-0.011-4.135-0.02c0.008-8.028,0.014-12.042,0.021-20.07c9.776,0.006,19.554,0.008,29.33,0.008
				c16.875-0.688,27.11,10.462,26.763,29.306c-0.196,10.65-2.569,18.58-7.802,23.812c3.22,10.966,4.831,16.447,8.055,27.394
				c1.251-0.009,1.876-0.014,3.127-0.022c0.004,8.062,0.002,12.096,0.006,20.159c-7.788,0.074-11.681,0.088-19.469,0.074
				c-3.572-13.845-7.129-27.692-10.701-41.536c-2.469-0.012-3.701-0.018-6.17-0.035c-0.004,8.523-0.006,12.784-0.01,21.308
				C334.263,310.65,335.342,310.659,337.499,310.674z M332.123,271.636c0.656,0.002,0.983,0.005,1.64,0.008
				c6.325,0.029,9.369-3.161,9.371-10.707c0.002-7.111-2.96-10.741-9.204-10.756c-0.546,0-1.172,0.144-1.797,0.142
				C332.129,258.848,332.127,263.109,332.123,271.636z"/>
			<path fill="#FFFFFF" d="M369.62,310.652c1.595-0.013,2.389-0.023,3.983-0.039c-0.009-20.097-0.02-40.195-0.031-60.294
				c-1.592,0.004-2.389,0.007-3.98,0.011c-0.003-8.063-0.005-12.095-0.008-20.158c10.998-0.002,21.997-0.005,32.995-0.011
				c14.313-0.799,22.448,10.795,22.121,26.003c-0.233,10.859-9.335,22.055-9.335,22.055c0.047,0.576,10.846,11.278,11.05,23.065
				c0.251,14.46-6.58,28.849-21.06,28.783c-11.906,0.373-23.816,0.615-35.727,0.74C369.625,322.744,369.624,318.712,369.62,310.652z
				 M395.991,271.155c5.856-0.063,8.586-3.269,8.577-10.469c-0.009-7.199-2.511-9.772-8.208-9.739
				c-1.467,0.007-2.199,0.013-3.666,0.02c0.008,8.089,0.01,12.134,0.018,20.224C394.023,271.177,394.68,271.17,395.991,271.155z
				 M396.032,309.114c5.861-0.118,8.67-3.505,8.661-10.848c-0.01-7.92-2.513-10.604-8.293-10.517
				c-1.469,0.021-2.203,0.033-3.672,0.052c0.008,8.552,0.013,12.829,0.021,21.378C394.062,309.155,394.72,309.139,396.032,309.114z"
				/>
			<path fill="#FFFFFF" d="M438.329,242.637c5.2-9.249,12.452-14.206,20.954-14.206c8.814,0,16.124,4.928,21.488,14.103
				c6.018,10.294,8.183,23.159,8.213,35.35c0.03,12.386-2.134,25.387-8.02,35.991c-5.325,9.593-12.612,15.048-21.441,15.613
				c-8.517,0.546-15.86-4.025-21.13-13.13c-6.161-10.641-8.247-24.023-8.271-36.586
				C430.097,267.031,432.189,253.558,438.329,242.637z M466.427,279.148c-0.023-9.355-2.382-29.577-6.938-29.524
				c-4.794,0.057-6.823,20.485-6.803,29.969c0.02,9.321,2.398,29.817,6.943,29.676C464.439,309.122,466.451,288.738,466.427,279.148
				z"/>
			<path fill="#FFFFFF" d="M509.748,304.886c0.023,7.497,0.035,11.246,0.059,18.744c-7.587,0.698-11.385,1.027-18.975,1.644
				c-0.022-7.627-0.029-11.442-0.052-19.067c1.155-0.074,1.734-0.113,2.89-0.189c3.462-19.089,6.942-38.173,10.447-57.253
				c-1.623,0.031-2.437,0.046-4.06,0.076c-0.022-7.51-0.032-11.265-0.054-18.775c12.402-0.018,24.805-0.04,37.207-0.063
				c0.023,7.228,0.035,10.842,0.059,18.067c-1.653,0.04-2.481,0.057-4.135,0.094c3.523,17.987,7.094,35.962,10.705,53.926
				c1.186-0.107,1.777-0.162,2.963-0.271c0.023,7.195,0.037,10.795,0.061,17.99c-10.667,1.218-16.005,1.781-26.68,2.831
				c-0.023-7.42-0.033-11.127-0.057-18.545c1.592-0.127,2.389-0.191,3.98-0.32c-0.892-5.402-1.337-8.11-2.229-13.541
				c-5.274,0.345-7.911,0.511-13.187,0.827c-0.982,5.621-1.474,8.439-2.456,14.084C507.642,305.043,508.344,304.991,509.748,304.886
				z M520.128,279.537c-1.75-10.477-2.626-15.74-4.376-26.311c-1.995,10.665-2.992,16.026-4.988,26.796
				C514.509,279.834,516.383,279.736,520.128,279.537z"/>
			<path fill="#FFFFFF" d="M576.19,298.924c0.021,6.911,0.031,10.366,0.053,17.277c-9.501,1.247-19.009,2.419-28.525,3.508
				c-0.023-7.188-0.035-10.781-0.059-17.971c1.653-0.15,2.48-0.226,4.134-0.381c-0.066-17.835-0.111-35.67-0.174-53.505
				c-1.653,0.042-2.48,0.062-4.134,0.102c-0.023-7.188-0.035-10.782-0.059-17.971c9.775-0.02,19.552-0.04,29.327-0.062
				c14.235-0.53,27.129,6.228,26.82,23.954c-0.152,8.715-2.531,15.366-7.74,20.104c3.236,8.864,4.854,13.234,8.087,21.838
				c1.246-0.147,1.868-0.222,3.114-0.373c0.018,6.571,0.024,9.858,0.042,16.428c-7.751,1.161-11.628,1.715-19.384,2.786
				c-3.648-11.334-7.222-22.697-10.779-34.07c-2.463,0.193-3.696,0.288-6.16,0.476c0.023,7.368,0.037,11.053,0.061,18.421
				C572.966,299.262,574.04,299.151,576.19,298.924z M570.706,265.777c0.655-0.036,0.982-0.055,1.638-0.089
				c6.315-0.345,9.348-3.233,9.328-9.643c-0.019-6.041-2.992-9.037-9.231-8.865c-0.546,0.015-1.168,0.158-1.792,0.174
				C570.672,254.723,570.683,258.408,570.706,265.777z"/>
			<path fill="#FFFFFF" d="M608.198,295.305c1.588-0.191,2.384-0.288,3.972-0.482c-0.041-16.237-0.081-32.474-0.122-48.71
				c-1.591,0.052-2.385,0.078-3.976,0.129c-0.017-6.557-0.025-9.837-0.042-16.395c10.452-0.026,15.679-0.04,26.131-0.07
				c10.218-0.028,18.026,1.322,23.717,7.269c6.895,7.204,9.696,18.313,9.665,28.662c-0.033,10.988-3.001,22.421-9.786,30.692
				c-5.144,6.268-12.81,9.415-23.459,11.18c-10.417,1.729-15.628,2.552-26.056,4.119
				C608.225,305.141,608.215,301.861,608.198,295.305z M634.967,290.785c7.157-0.938,10.491-8.516,10.473-23.397
				c-0.019-14.555-3.691-21.632-11.018-21.363c-0.623,0.023-1.168,0.042-1.792,0.179c0.03,14.883,0.056,29.767,0.082,44.651
				C633.49,290.866,634.268,290.876,634.967,290.785z"/>
		</g>
	</g>
</g>
</svg>
